<svg width="42" height="43" viewBox="0 0 42 43" fill="none" xmlns="http://www.w3.org/2000/svg">
<path d="M13.7631 22.7751L14.3716 22.6324L13.7631 22.7751ZM13.7631 18.2276L14.3716 18.3703L13.7631 18.2276ZM26.6578 18.2276L27.2663 18.0848L26.6578 18.2276ZM26.6578 22.7751L27.2663 22.9178L26.6578 22.7751ZM22.4842 26.9487L22.3415 26.3402L22.4842 26.9487ZM17.9367 26.9487L17.7939 27.5571L17.9367 26.9487ZM17.9367 14.054L17.7939 13.4455L17.9367 14.054ZM22.4842 14.054L22.6269 13.4455L22.4842 14.054ZM28.0581 29.2328C28.3021 29.4769 28.6979 29.4769 28.9419 29.2328C29.186 28.9888 29.186 28.593 28.9419 28.349L28.0581 29.2328ZM14.3716 22.6324C14.0428 21.2307 14.0428 19.772 14.3716 18.3703L13.1546 18.0848C12.7818 19.6743 12.7818 21.3284 13.1546 22.9178L14.3716 22.6324ZM26.0493 18.3703C26.3781 19.772 26.3781 21.2307 26.0493 22.6324L27.2663 22.9178C27.6391 21.3284 27.6391 19.6743 27.2663 18.0848L26.0493 18.3703ZM22.3415 26.3402C20.9398 26.669 19.4811 26.669 18.0794 26.3402L17.7939 27.5571C19.3834 27.93 21.0375 27.93 22.6269 27.5571L22.3415 26.3402ZM18.0794 14.6625C19.4811 14.3337 20.9398 14.3337 22.3415 14.6625L22.6269 13.4455C21.0375 13.0727 19.3834 13.0727 17.7939 13.4455L18.0794 14.6625ZM18.0794 26.3402C16.2396 25.9086 14.8031 24.4721 14.3716 22.6324L13.1546 22.9178C13.6946 25.2198 15.492 27.0172 17.7939 27.5571L18.0794 26.3402ZM22.6269 27.5571C24.9289 27.0172 26.7263 25.2198 27.2663 22.9178L26.0493 22.6324C25.6177 24.4721 24.1812 25.9086 22.3415 26.3402L22.6269 27.5571ZM22.3415 14.6625C24.1812 15.094 25.6177 16.5305 26.0493 18.3703L27.2663 18.0848C26.7263 15.7829 24.9289 13.9855 22.6269 13.4455L22.3415 14.6625ZM17.7939 13.4455C15.492 13.9855 13.6946 15.7829 13.1546 18.0848L14.3716 18.3703C14.8031 16.5305 16.2396 15.094 18.0794 14.6625L17.7939 13.4455ZM25.004 26.1788L28.0581 29.2328L28.9419 28.349L25.8879 25.2949L25.004 26.1788Z" fill="#363853"/>
<rect x="0.5" y="0.790894" width="41" height="41" rx="20.5" stroke="#E8E8E8"/>
</svg>




<svg width="42" height="43" viewBox="0 0 42 43" fill="none" xmlns="http://www.w3.org/2000/svg">
<path d="M13.7631 22.7751L14.3716 22.6324L13.7631 22.7751ZM13.7631 18.2276L14.3716 18.3703L13.7631 18.2276ZM26.6578 18.2276L27.2663 18.0848L26.6578 18.2276ZM26.6578 22.7751L27.2663 22.9178L26.6578 22.7751ZM22.4842 26.9487L22.3415 26.3402L22.4842 26.9487ZM17.9367 26.9487L17.7939 27.5571L17.9367 26.9487ZM17.9367 14.054L17.7939 13.4455L17.9367 14.054ZM22.4842 14.054L22.6269 13.4455L22.4842 14.054ZM28.0581 29.2328C28.3021 29.4769 28.6979 29.4769 28.9419 29.2328C29.186 28.9888 29.186 28.593 28.9419 28.349L28.0581 29.2328ZM14.3716 22.6324C14.0428 21.2307 14.0428 19.772 14.3716 18.3703L13.1546 18.0848C12.7818 19.6743 12.7818 21.3284 13.1546 22.9178L14.3716 22.6324ZM26.0493 18.3703C26.3781 19.772 26.3781 21.2307 26.0493 22.6324L27.2663 22.9178C27.6391 21.3284 27.6391 19.6743 27.2663 18.0848L26.0493 18.3703ZM22.3415 26.3402C20.9398 26.669 19.4811 26.669 18.0794 26.3402L17.7939 27.5571C19.3834 27.93 21.0375 27.93 22.6269 27.5571L22.3415 26.3402ZM18.0794 14.6625C19.4811 14.3337 20.9398 14.3337 22.3415 14.6625L22.6269 13.4455C21.0375 13.0727 19.3834 13.0727 17.7939 13.4455L18.0794 14.6625ZM18.0794 26.3402C16.2396 25.9086 14.8031 24.4721 14.3716 22.6324L13.1546 22.9178C13.6946 25.2198 15.492 27.0172 17.7939 27.5571L18.0794 26.3402ZM22.6269 27.5571C24.9289 27.0172 26.7263 25.2198 27.2663 22.9178L26.0493 22.6324C25.6177 24.4721 24.1812 25.9086 22.3415 26.3402L22.6269 27.5571ZM22.3415 14.6625C24.1812 15.094 25.6177 16.5305 26.0493 18.3703L27.2663 18.0848C26.7263 15.7829 24.9289 13.9855 22.6269 13.4455L22.3415 14.6625ZM17.7939 13.4455C15.492 13.9855 13.6946 15.7829 13.1546 18.0848L14.3716 18.3703C14.8031 16.5305 16.2396 15.094 18.0794 14.6625L17.7939 13.4455ZM25.004 26.1788L28.0581 29.2328L28.9419 28.349L25.8879 25.2949L25.004 26.1788Z" fill="#363853"/>
<rect x="0.5" y="0.790894" width="41" height="41" rx="20.5" stroke="#E8E8E8"/>
</svg>