<svg width="163" height="50" viewBox="0 0 163 50" fill="none" xmlns="http://www.w3.org/2000/svg">
<rect x="0.893555" y="0.604492" width="162" height="49" rx="24.5" fill="white"/>
<path d="M25.5105 16.4983C27.9095 16.4983 28.2088 16.5071 29.1501 16.5513C30.0905 16.5954 30.7306 16.7429 31.294 16.9619C31.8767 17.1861 32.3677 17.4899 32.8586 17.9799C33.3076 18.4213 33.655 18.9553 33.8767 19.5446C34.0948 20.107 34.2431 20.7481 34.2873 21.6884C34.3288 22.6297 34.3402 22.929 34.3402 25.3281C34.3402 27.7271 34.3314 28.0265 34.2873 28.9677C34.2431 29.9081 34.0948 30.5482 33.8767 31.1116C33.6556 31.7012 33.3081 32.2353 32.8586 32.6762C32.4171 33.1251 31.8832 33.4725 31.294 33.6943C30.7315 33.9124 30.0905 34.0607 29.1501 34.1049C28.2088 34.1464 27.9095 34.1579 25.5105 34.1579C23.1114 34.1579 22.8121 34.149 21.8708 34.1049C20.9304 34.0607 20.2903 33.9124 19.7269 33.6943C19.1374 33.4731 18.6034 33.1256 18.1623 32.6762C17.7132 32.2349 17.3658 31.7009 17.1442 31.1116C16.9252 30.5491 16.7778 29.9081 16.7336 28.9677C16.6921 28.0265 16.6807 27.7271 16.6807 25.3281C16.6807 22.929 16.6895 22.6297 16.7336 21.6884C16.7778 20.7472 16.9252 20.1079 17.1442 19.5446C17.3652 18.9549 17.7127 18.4208 18.1623 17.9799C18.6035 17.5307 19.1375 17.1832 19.7269 16.9619C20.2903 16.7429 20.9296 16.5954 21.8708 16.5513C22.8121 16.5098 23.1114 16.4983 25.5105 16.4983ZM25.5105 20.9132C24.3395 20.9132 23.2166 21.3783 22.3886 22.2063C21.5607 23.0342 21.0956 24.1572 21.0956 25.3281C21.0956 26.499 21.5607 27.6219 22.3886 28.4499C23.2166 29.2778 24.3395 29.743 25.5105 29.743C26.6814 29.743 27.8043 29.2778 28.6323 28.4499C29.4602 27.6219 29.9253 26.499 29.9253 25.3281C29.9253 24.1572 29.4602 23.0342 28.6323 22.2063C27.8043 21.3783 26.6814 20.9132 25.5105 20.9132ZM31.2498 20.6924C31.2498 20.3997 31.1335 20.119 30.9265 19.912C30.7196 19.705 30.4388 19.5887 30.1461 19.5887C29.8534 19.5887 29.5726 19.705 29.3656 19.912C29.1587 20.119 29.0424 20.3997 29.0424 20.6924C29.0424 20.9852 29.1587 21.2659 29.3656 21.4729C29.5726 21.6799 29.8534 21.7962 30.1461 21.7962C30.4388 21.7962 30.7196 21.6799 30.9265 21.4729C31.1335 21.2659 31.2498 20.9852 31.2498 20.6924ZM25.5105 22.6791C26.213 22.6791 26.8868 22.9582 27.3835 23.455C27.8803 23.9518 28.1594 24.6255 28.1594 25.3281C28.1594 26.0306 27.8803 26.7044 27.3835 27.2012C26.8868 27.6979 26.213 27.977 25.5105 27.977C24.8079 27.977 24.1341 27.6979 23.6374 27.2012C23.1406 26.7044 22.8615 26.0306 22.8615 25.3281C22.8615 24.6255 23.1406 23.9518 23.6374 23.455C24.1341 22.9582 24.8079 22.6791 25.5105 22.6791Z" fill="#080808"/>
<path d="M75.6095 24.6929C75.6095 24.3249 75.6815 24.0409 75.8255 23.8409H75.4295C75.1015 23.8409 74.8535 23.9289 74.6855 24.1049C74.5175 24.2729 74.4335 24.5169 74.4335 24.8369V30.2369H72.9095V24.8369C72.9095 24.0609 73.1415 23.4449 73.6055 22.9889C74.0695 22.5329 74.6975 22.3049 75.4895 22.3049H78.0815C78.8495 22.3049 79.4215 22.4929 79.7975 22.8689C80.1735 23.2369 80.3615 23.7769 80.3615 24.4889V25.1489C80.3615 25.8689 80.1535 26.4209 79.7375 26.8049C79.3215 27.1889 78.7255 27.3809 77.9495 27.3809C77.1815 27.3809 76.5975 27.2009 76.1975 26.8409C75.8055 26.4729 75.6095 25.9569 75.6095 25.2929V24.6929ZM78.0095 25.7969C78.2815 25.7969 78.4895 25.7449 78.6335 25.6409C78.7775 25.5289 78.8495 25.3409 78.8495 25.0769V24.6089C78.8495 24.3609 78.7815 24.1689 78.6455 24.0329C78.5095 23.8969 78.3175 23.8289 78.0695 23.8289H77.8535C77.6135 23.8289 77.4295 23.9009 77.3015 24.0449C77.1815 24.1889 77.1215 24.3769 77.1215 24.6089V25.0169C77.1215 25.3129 77.1895 25.5169 77.3255 25.6289C77.4615 25.7409 77.6895 25.7969 78.0095 25.7969ZM82.0761 19.6529H83.6121V27.3809H82.0761V19.6529ZM87.4251 25.0649C87.4251 25.3129 87.4851 25.4969 87.6051 25.6169C87.7331 25.7289 87.9331 25.7849 88.2051 25.7849H88.4211C88.5011 25.7849 88.5411 26.0609 88.5411 26.6129C88.5411 27.1249 88.5011 27.3809 88.4211 27.3809H88.2291C88.0611 27.3809 87.9051 27.3609 87.7611 27.3209C87.6171 27.2729 87.5051 27.2089 87.4251 27.1289C87.4011 27.7289 87.2531 28.2649 86.9811 28.7369C86.7171 29.2089 86.3451 29.5769 85.8651 29.8409C85.3851 30.1129 84.8251 30.2489 84.1851 30.2489H83.1771L83.0451 28.6529H84.1611C84.7131 28.6529 85.1411 28.5009 85.4451 28.1969C85.7491 27.9009 85.9011 27.4809 85.9011 26.9369V23.2529H87.4251V25.0649ZM93.434 17.3969L93.698 18.3329L89.378 20.0729V19.0529L93.434 17.3969ZM91.598 25.7849C91.846 25.7849 92.034 25.7449 92.162 25.6649C92.298 25.5849 92.366 25.4729 92.366 25.3289C92.366 25.1929 92.334 25.0729 92.27 24.9689C92.214 24.8649 92.118 24.7449 91.982 24.6089L89.378 22.0649V20.8169L93.926 19.0649L94.358 20.5529L91.262 21.7169L93.134 23.5769C93.414 23.8649 93.618 24.1609 93.746 24.4649C93.882 24.7609 93.95 25.0809 93.95 25.4249C93.95 26.0089 93.746 26.4809 93.338 26.8409C92.938 27.2009 92.374 27.3809 91.646 27.3809H88.418C88.338 27.3809 88.298 27.1249 88.298 26.6129C88.298 26.0609 88.338 25.7849 88.418 25.7849H91.598ZM98.3765 25.7849C98.4165 25.7849 98.4445 25.8369 98.4605 25.9409C98.4845 26.0449 98.4965 26.2689 98.4965 26.6129C98.4965 26.9329 98.4845 27.1409 98.4605 27.2369C98.4445 27.3329 98.4165 27.3809 98.3765 27.3809H97.9445C97.2725 27.3809 96.7605 27.1889 96.4085 26.8049C96.0645 26.4129 95.8925 25.8569 95.8925 25.1369V19.6529H97.4285V25.0289C97.4285 25.2849 97.4765 25.4769 97.5725 25.6049C97.6765 25.7249 97.8365 25.7849 98.0525 25.7849H98.3765ZM99.7709 25.7849C99.9709 25.7849 100.131 25.7329 100.251 25.6289C100.379 25.5169 100.443 25.3649 100.443 25.1729V23.2529H101.967V25.1249C101.967 25.5649 102.191 25.7849 102.639 25.7849H103.095C103.175 25.7849 103.215 26.0529 103.215 26.5889C103.215 27.1169 103.175 27.3809 103.095 27.3809H102.567C101.895 27.3809 101.439 27.1889 101.199 26.8049C101.055 27.0049 100.863 27.1529 100.623 27.2489C100.391 27.3369 100.107 27.3809 99.7709 27.3809H98.3789C98.2989 27.3809 98.2589 27.1249 98.2589 26.6129C98.2589 26.0609 98.2989 25.7849 98.3789 25.7849H99.7709ZM102.027 20.6369V22.0049H98.6429V20.6369H102.027ZM104.014 25.7849C104.286 25.7849 104.49 25.7209 104.626 25.5929C104.77 25.4649 104.842 25.2889 104.842 25.0649V23.2529H106.366V25.0649C106.366 25.5449 106.642 25.7849 107.194 25.7849C107.466 25.7849 107.67 25.7209 107.806 25.5929C107.95 25.4649 108.022 25.2889 108.022 25.0649V23.2529H109.546V25.0649C109.546 25.5449 109.802 25.7849 110.314 25.7849C110.826 25.7849 111.082 25.5449 111.082 25.0649V23.2529H112.606V25.0649C112.606 25.5449 112.83 25.7849 113.278 25.7849H113.758C113.838 25.7849 113.878 26.0609 113.878 26.6129C113.878 27.1249 113.838 27.3809 113.758 27.3809H113.278C112.894 27.3809 112.582 27.3369 112.342 27.2489C112.102 27.1529 111.922 27.0049 111.802 26.8049C111.658 27.0049 111.462 27.1529 111.214 27.2489C110.974 27.3369 110.674 27.3809 110.314 27.3809C109.89 27.3809 109.55 27.3289 109.294 27.2249C109.038 27.1129 108.846 26.9529 108.718 26.7449C108.566 26.9529 108.366 27.1129 108.118 27.2249C107.878 27.3289 107.57 27.3809 107.194 27.3809C106.754 27.3809 106.402 27.3289 106.138 27.2249C105.874 27.1129 105.678 26.9529 105.55 26.7449C105.238 27.1689 104.726 27.3809 104.014 27.3809H103.09C103.01 27.3809 102.97 27.1249 102.97 26.6129C102.97 26.0609 103.01 25.7849 103.09 25.7849H104.014ZM115.146 25.7849C115.346 25.7849 115.506 25.7329 115.626 25.6289C115.754 25.5169 115.818 25.3649 115.818 25.1729V23.2529H117.342V25.1249C117.342 25.5649 117.566 25.7849 118.014 25.7849H118.47C118.55 25.7849 118.59 26.0529 118.59 26.5889C118.59 27.1169 118.55 27.3809 118.47 27.3809H117.942C117.27 27.3809 116.814 27.1889 116.574 26.8049C116.43 27.0049 116.238 27.1529 115.998 27.2489C115.766 27.3369 115.482 27.3809 115.146 27.3809H113.754C113.674 27.3809 113.634 27.1249 113.634 26.6129C113.634 26.0609 113.674 25.7849 113.754 25.7849H115.146ZM115.65 22.0049V20.6369H117.282V22.0049H115.65ZM121.837 25.2449C121.837 25.9089 121.637 26.4329 121.237 26.8169C120.845 27.1929 120.313 27.3809 119.641 27.3809H118.465C118.385 27.3809 118.345 27.1249 118.345 26.6129C118.345 26.0609 118.385 25.7849 118.465 25.7849H119.641C119.841 25.7849 120.001 25.7329 120.121 25.6289C120.249 25.5169 120.313 25.3649 120.313 25.1729V23.2529H121.837V25.2449ZM121.117 28.6289V29.9969H117.733V28.6289H121.117ZM123.549 19.6529H125.085V27.3809H123.549V19.6529Z" fill="black"/>
</svg>
