<svg width="50" height="50" viewBox="0 0 50 50" fill="none" xmlns="http://www.w3.org/2000/svg">
<rect x="0.446777" y="0.381104" width="49.4468" height="49.4468" rx="24.7234" fill="white"/>
<path d="M25.1702 33.9345C20.2936 33.9345 16.3405 29.9814 16.3405 25.1047C16.3405 20.228 20.2936 16.2749 25.1702 16.2749C30.0469 16.2749 34 20.228 34 25.1047C34 29.9814 30.0469 33.9345 25.1702 33.9345ZM22.4242 26.1378L22.4357 26.1316L23.2038 28.6657C23.3027 28.9404 23.4387 28.9898 23.6038 28.9668C23.7698 28.9448 23.8573 28.8556 23.9659 28.7514L25.0148 27.7377L27.2664 29.4048C27.6779 29.6317 27.9737 29.5143 28.0761 29.0233L29.5392 22.1167C29.7008 21.4739 29.4183 21.2161 28.9194 21.4209L20.3253 24.7409C19.739 24.9758 19.7426 25.3042 20.2194 25.4499L22.4242 26.1387V26.1378Z" fill="#080808"/>
</svg>
