<svg width="51" height="50" viewBox="0 0 51 50" fill="none" xmlns="http://www.w3.org/2000/svg">
<rect x="0.893555" y="0.381104" width="49.4468" height="49.4468" rx="24.7234" fill="white"/>
<path d="M25.6169 16.2749C20.7402 16.2749 16.7871 20.228 16.7871 25.1047C16.7871 29.5116 20.0162 33.1645 24.2377 33.8276V27.6565H21.9949V25.1047H24.2377V23.1595C24.2377 20.9467 25.5551 19.7247 27.5727 19.7247C28.5387 19.7247 29.5488 19.8969 29.5488 19.8969V22.069H28.4362C27.3387 22.069 26.997 22.7498 26.997 23.4482V25.1047H29.4455L29.0543 27.6565H26.997V33.8276C31.2176 33.1654 34.4467 29.5108 34.4467 25.1047C34.4467 20.228 30.4936 16.2749 25.6169 16.2749Z" fill="#080808"/>
</svg>
