<svg width="50" height="50" viewBox="0 0 50 50" fill="none" xmlns="http://www.w3.org/2000/svg">
<rect y="0.381104" width="49.4468" height="49.4468" rx="24.7234" fill="white"/>
<path d="M20.2555 18.9238C20.2553 19.3922 20.069 19.8413 19.7377 20.1723C19.4063 20.5033 18.9571 20.6891 18.4887 20.6889C18.0203 20.6887 17.5713 20.5024 17.2402 20.171C16.9092 19.8397 16.7234 19.3904 16.7236 18.9221C16.7239 18.4537 16.9101 18.0046 17.2415 17.6736C17.5728 17.3426 18.0221 17.1567 18.4905 17.157C18.9588 17.1572 19.4079 17.3435 19.7389 17.6748C20.07 18.0062 20.2558 18.4555 20.2555 18.9238ZM20.3085 21.9966H16.7766V33.0515H20.3085V21.9966ZM25.889 21.9966H22.3747V33.0515H25.8536V27.2503C25.8536 24.0186 30.0654 23.7184 30.0654 27.2503V33.0515H33.5532V26.0495C33.5532 20.6015 27.3194 20.8046 25.8536 23.48L25.889 21.9966Z" fill="#080808"/>
</svg>
